<?xml version="1.0" encoding="UTF-8"?>
<svg version="1.1" xmlns="http://www.w3.org/2000/svg" width="512" height="512">
<path d="M0 0 C1.35464709 -0.00668677 1.35464709 -0.00668677 2.73666078 -0.01350862 C3.73518011 -0.01332426 4.73369943 -0.01313989 5.76247692 -0.01294994 C7.34620854 -0.01846498 7.34620854 -0.01846498 8.96193475 -0.02409142 C12.52331719 -0.03516294 16.08467051 -0.03897795 19.64606762 -0.04278088 C22.18994268 -0.04904284 24.73381681 -0.05568939 27.27768993 -0.0626936 C34.92840845 -0.08194611 42.57912186 -0.09252509 50.22985843 -0.10142139 C53.83096435 -0.10580267 57.4320688 -0.11116988 61.03317356 -0.11641026 C73.00091052 -0.13342304 84.96864655 -0.14791798 96.93639374 -0.155159 C100.04290614 -0.15706895 103.14941853 -0.15898928 106.2559309 -0.16094494 C107.02805757 -0.16142868 107.80018424 -0.16191242 108.59570869 -0.16241082 C121.10821141 -0.17071401 133.62061863 -0.19605555 146.13307963 -0.22852562 C158.97349993 -0.26157565 171.81387165 -0.27960587 184.65433472 -0.28280324 C191.86618609 -0.2849702 199.07789816 -0.29374591 206.28970814 -0.31926441 C213.07190286 -0.34320706 219.85380318 -0.34681006 226.63604641 -0.33650303 C229.12858253 -0.33600566 231.62113068 -0.34238481 234.11362934 -0.35605907 C237.51022964 -0.37365429 240.90591636 -0.36673221 244.30251598 -0.35352612 C245.29434315 -0.36449536 246.28617031 -0.37546461 247.30805284 -0.38676625 C251.64506687 -0.34591152 254.05406502 -0.27843121 257.81175041 2.03970528 C261.20774318 5.76138824 261.05119927 8.77005512 261.01594067 13.64984608 C260.60835065 17.10620942 259.2602069 18.82085977 256.72297192 21.13422108 C254.44241762 22.27449823 253.19917299 22.25856785 250.66623783 22.25726891 C249.8120388 22.25925978 248.95783978 22.26125065 248.07775593 22.26330185 C247.13445864 22.26038918 246.19116135 22.25747652 245.21927929 22.25447559 C244.22359936 22.25533161 243.22791943 22.25618763 242.20206738 22.25706959 C238.83385496 22.25873316 235.46569156 22.25318758 232.09748363 22.24774647 C229.65423681 22.24744034 227.2109899 22.24757327 224.76774311 22.24811172 C218.87103058 22.24831517 212.9743317 22.2440183 207.07762361 22.2376104 C200.25961665 22.2304225 193.44161734 22.22961631 186.62360668 22.22882557 C168.61505935 22.22357096 150.60651541 22.2096099 132.59797192 22.19672108 C92.37922192 22.17609608 52.16047192 22.15547108 10.72297192 22.13422108 C10.72297192 131.03422108 10.72297192 239.93422108 10.72297192 352.13422108 C119.62297192 352.13422108 228.52297192 352.13422108 340.72297192 352.13422108 C340.52494496 270.45811364 340.52494496 270.45811364 340.27253246 188.7821703 C340.24994946 173.00360584 340.24994946 173.00360584 340.24575329 165.62253284 C340.24108539 160.45520506 340.22272283 155.28807248 340.19509411 150.12082386 C340.15992874 143.53430976 340.1505044 136.94809526 340.15761054 130.36146855 C340.15612408 127.94130089 340.14617201 125.52112051 340.12689626 123.10102916 C340.10209753 119.83646167 340.10799344 116.57335066 340.12169933 113.30875111 C340.10713601 112.35765524 340.09257269 111.40655937 340.07756805 110.42664242 C340.12726957 106.03492658 340.31503054 103.05741015 343.11797333 99.55519772 C346.44142297 96.46652275 348.21036605 96.16533065 352.57453442 95.96234608 C356.58707083 96.28334899 358.74647312 98.02600732 361.33184004 100.96010125 C362.93818899 103.47057144 363.1002623 104.77985382 363.10608196 107.73263836 C363.11966692 109.11845901 363.11966692 109.11845901 363.13352633 110.53227603 C363.12553444 112.04947543 363.12553444 112.04947543 363.1173811 113.59732533 C363.1234722 114.67456745 363.1295633 115.75180958 363.13583899 116.86169541 C363.15253351 120.48373065 363.14768386 124.10541683 363.14289379 127.7274828 C363.15023037 130.31929358 363.15881539 132.91110109 363.16855907 135.50290394 C363.18962504 141.81971283 363.19415325 148.13642996 363.19237119 154.45326982 C363.19106409 159.58757414 363.19486505 164.7218498 363.20229626 169.85614872 C363.20439543 171.33451688 363.20649303 172.81288504 363.20858908 174.29125321 C363.21015437 175.3949622 363.21015437 175.3949622 363.21175128 176.52096833 C363.23065853 190.44073587 363.22960204 204.36045071 363.22278196 218.28022577 C363.21720676 231.01505793 363.23802996 243.7496889 363.27114242 256.48447405 C363.30487423 269.55889048 363.32004836 282.63321052 363.3154254 295.70767128 C363.3131801 303.04864794 363.31843245 310.38943865 363.34331799 317.73037815 C363.36651927 324.63331411 363.36375455 331.53582426 363.34339046 338.43876743 C363.33997025 340.97441907 363.34511268 343.51009863 363.35937405 346.04571247 C363.37748149 349.50335166 363.36487868 352.95955474 363.34443188 356.41714954 C363.35694973 357.42415437 363.36946757 358.43115919 363.38236475 359.46867931 C363.32498457 363.98457605 363.20899429 367.14267212 360.30913067 370.74153805 C356.57946752 374.19217761 354.85842694 374.26056806 349.87138271 374.27123547 C348.6170784 374.27631001 347.36277409 374.28138455 346.07046056 374.28661287 C344.66558889 374.2872146 343.26071718 374.28771366 341.85584545 374.28812122 C340.37346619 374.29213432 338.89108803 374.29657229 337.40871119 374.30140078 C333.32024779 374.31338912 329.2317962 374.31901995 325.14331865 374.32358193 C320.73964536 374.32952945 316.33598625 374.34114138 311.9323225 374.35187244 C301.29010427 374.37641549 290.64788133 374.39102613 280.00564349 374.40393251 C277.00123096 374.40764297 273.9968189 374.41161632 270.99240685 374.41568518 C252.34663191 374.44091955 233.70085626 374.46297879 215.05506802 374.47541332 C210.73440835 374.47834316 206.41374871 374.4813048 202.0930891 374.48431873 C201.01917265 374.48506478 199.9452562 374.48581083 198.83879682 374.48657949 C181.43503822 374.49923794 164.03138167 374.53246649 146.62767079 374.57412057 C128.77112185 374.61650914 110.91462521 374.64010477 93.05802608 374.64533389 C83.02753239 374.64875144 72.99719821 374.66054712 62.96675396 374.69343662 C54.42572897 374.721396 45.88489615 374.73245458 37.34382895 374.72124116 C32.98454454 374.71604399 28.62566284 374.71900957 24.26643658 374.7437067 C20.27646324 374.76612355 16.28718362 374.76551897 12.29719874 374.74650283 C10.8530065 374.74369213 9.40876797 374.74936071 7.96465042 374.76431577 C-4.17559752 374.88236146 -4.17559752 374.88236146 -8.1129694 371.72122097 C-11.27371106 367.94274749 -11.40364192 366.14492353 -11.41404247 361.28263187 C-11.41911702 360.02832756 -11.42419156 358.77402325 -11.42941988 357.48170972 C-11.4300216 356.07683806 -11.43052067 354.67196635 -11.43092823 353.26709461 C-11.43494133 351.78471535 -11.43937929 350.30233719 -11.44420779 348.81996036 C-11.45619613 344.73149695 -11.46182696 340.64304536 -11.46638894 336.55456781 C-11.47233646 332.15089452 -11.48394839 327.74723541 -11.49467945 323.34357166 C-11.5192225 312.70135343 -11.53383314 302.05913049 -11.54673952 291.41689265 C-11.55044998 288.41248012 -11.55442333 285.40806807 -11.55849218 282.40365601 C-11.58372656 263.75788107 -11.60578579 245.11210543 -11.61822033 226.46631718 C-11.62115016 222.14565751 -11.62411181 217.82499787 -11.62712574 213.50433826 C-11.62787179 212.43042181 -11.62861784 211.35650536 -11.6293865 210.25004598 C-11.64204495 192.84628738 -11.67527349 175.44263083 -11.71692757 158.03891996 C-11.75931614 140.18237102 -11.78291178 122.32587437 -11.78814089 104.46927524 C-11.79155845 94.43878155 -11.80335413 84.40844737 -11.83624363 74.37800312 C-11.86420301 65.83697813 -11.87526159 57.29614531 -11.86404817 48.75507811 C-11.85885099 44.3957937 -11.86181658 40.036912 -11.88651371 35.67768574 C-11.90893055 31.6877124 -11.90832598 27.69843278 -11.88930984 23.7084479 C-11.88649913 22.26425566 -11.89216772 20.82001713 -11.90712278 19.37589958 C-12.02516846 7.23565164 -12.02516846 7.23565164 -8.86402798 3.29827976 C-5.59329798 0.56227205 -4.14774434 0.00947074 0 0 Z " fill="#94A3BD" transform="translate(64.27702808380127,84.86577892303467)"/>
<path d="M0 0 C3.9148295 1.99191959 6.77563277 4.52734739 9.86621094 7.62329102 C10.32375259 8.07893433 10.78129425 8.53457764 11.25270081 9.00402832 C12.75151122 10.4991582 14.24304042 12.0013224 15.734375 13.50390625 C16.77821954 14.54894387 17.82243508 15.59361102 18.86700439 16.63792419 C21.04872912 18.82120889 23.22706501 21.00779984 25.40283203 23.19702148 C28.1943249 26.00555619 30.99240824 28.80741025 33.79281235 31.60705662 C35.94633078 33.76084658 38.09723624 35.91722974 40.24726105 38.07450676 C41.2785258 39.10895628 42.31039962 40.14279896 43.34288788 41.1760273 C44.78156994 42.61687193 46.21656124 44.06139896 47.65136719 45.50610352 C48.4690155 46.32756363 49.28666382 47.14902374 50.12908936 47.99537659 C53.09145576 51.16946139 53.1805345 53.43832846 53.42578125 57.734375 C52.05972553 65.00329536 44.69529512 70.59234861 39.72723389 75.54692078 C38.76798696 76.51062387 37.80917051 77.4747556 36.85074639 78.43927699 C34.22315983 81.08100781 31.58938055 83.71648681 28.95449328 86.35093319 C26.11102892 89.19604885 23.27328701 92.04686283 20.43473816 94.8968811 C14.23139811 101.12304281 8.02062848 107.34175783 1.80839825 113.55904746 C-2.07107586 117.44178082 -5.94891527 121.32614394 -9.82640839 125.21085548 C-20.56507478 135.96908135 -31.30531414 146.72572966 -42.05231094 157.47563457 C-42.73961138 158.16312259 -43.42691183 158.8506106 -44.13503955 159.55893158 C-45.52831411 160.95257238 -46.92158995 162.34621192 -48.31486705 163.73985019 C-49.00647362 164.43163957 -49.69808019 165.12342895 -50.41064453 165.83618164 C-51.44932366 166.87513159 -51.44932366 166.87513159 -52.5089862 167.93507043 C-63.73555883 179.16518675 -74.95033664 190.40700211 -86.15997973 201.65401473 C-97.67234323 213.20444915 -109.19403087 224.74551188 -120.72529483 236.27707797 C-127.19818463 242.75055248 -133.66705871 249.22792835 -140.12577057 255.71555138 C-145.62361431 261.23789224 -151.12997328 266.75156178 -156.64760312 272.25413641 C-159.46202107 275.06137967 -162.27225349 277.87250007 -165.07171822 280.69466209 C-167.63585039 283.27938367 -170.2113044 285.8522379 -172.79616055 288.41622958 C-174.16835469 289.78327662 -175.52826603 291.16261884 -176.88766217 292.54239291 C-183.21873113 298.78760964 -188.46544352 301.7288768 -197.37109375 302.99902344 C-198.34570557 303.1421698 -199.32031738 303.28531616 -200.32446289 303.43280029 C-201.35176514 303.57356995 -202.37906738 303.7143396 -203.4375 303.859375 C-204.51700928 304.01287415 -205.59651855 304.16637329 -206.70874023 304.32452393 C-208.98064266 304.64491095 -211.25320534 304.96064691 -213.52636719 305.27197266 C-216.99115343 305.74878257 -220.45250237 306.24646181 -223.9140625 306.74609375 C-226.13003219 307.05594985 -228.34617304 307.3645848 -230.5625 307.671875 C-231.58980225 307.82074158 -232.61710449 307.96960815 -233.67553711 308.12298584 C-247.23771216 309.9394787 -247.23771216 309.9394787 -252.9375 305.9375 C-257.80581159 299.00384411 -255.66604144 290.49503557 -254.48828125 282.6171875 C-254.31878464 281.4441507 -254.14928802 280.27111389 -253.97465515 279.06253052 C-253.61424813 276.59248629 -253.24831989 274.1232421 -252.87719727 271.65478516 C-252.31370329 267.88305419 -251.77799264 264.10805768 -251.24414062 260.33203125 C-250.88969925 257.9268354 -250.5336343 255.52187812 -250.17578125 253.1171875 C-250.0182991 251.99206757 -249.86081696 250.86694763 -249.69856262 249.70773315 C-249.53547104 248.65288727 -249.37237946 247.59804138 -249.2043457 246.51123047 C-249.0680928 245.58937958 -248.9318399 244.66752869 -248.79145813 243.71774292 C-246.57485061 236.10626082 -240.1475572 230.86635134 -234.70031738 225.4463501 C-233.73821417 224.48194074 -232.77654711 223.51709612 -231.81527758 222.5518558 C-229.17995501 219.90819811 -226.53844784 217.27079751 -223.8958571 214.63440776 C-221.04424178 211.78732103 -218.19839185 208.9344813 -215.35179138 206.0823822 C-209.77786545 200.49956567 -204.19854921 194.92216637 -198.61727798 189.34669408 C-194.08236366 184.81629664 -189.54940535 180.28395073 -185.01783752 175.75020599 C-184.37287521 175.10493721 -183.72791289 174.45966843 -183.06340626 173.79484604 C-181.75320984 172.48401018 -180.44301792 171.17316983 -179.13283044 169.86232504 C-166.84937113 157.57316365 -154.55979062 145.29013839 -142.26810771 133.00920305 C-131.7174157 122.46745068 -121.17198442 111.92045957 -110.63037109 101.36962891 C-98.39024877 89.11880912 -86.14689575 76.8712331 -73.89835119 64.62883353 C-72.59295076 63.3240702 -71.2875545 62.01930269 -69.98216248 60.71453094 C-69.33986758 60.0725446 -68.69757269 59.43055826 -68.03581432 58.76911779 C-63.5057979 54.24082957 -58.9781092 49.71022192 -54.4513092 45.17871857 C-48.93755962 39.65936617 -43.42027388 34.1435784 -37.89839137 28.63236222 C-35.08022445 25.81945943 -32.26369503 23.00496665 -29.45145988 20.18613243 C-26.87867003 17.60739664 -24.30133347 15.03329923 -21.72024387 12.46287152 C-20.34216271 11.0880936 -18.96900606 9.70838482 -17.59601259 8.32852578 C-16.37031974 7.11065617 -16.37031974 7.11065617 -15.11986542 5.86818314 C-14.41575389 5.16439632 -13.71164237 4.4606095 -12.98619413 3.73549581 C-8.79802498 0.07595927 -5.55408393 -0.48720034 0 0 Z M-5.30688477 28.19335938 C-5.84627686 28.73798828 -6.38566895 29.28261719 -6.94140625 29.84375 C-7.52470703 30.43027344 -8.10800781 31.01679687 -8.70898438 31.62109375 C-9.62647461 32.55115234 -9.62647461 32.55115234 -10.5625 33.5 C-11.48579102 34.43005859 -11.48579102 34.43005859 -12.42773438 35.37890625 C-13.95405516 36.91705898 -15.4773115 38.45825142 -17 40 C-15.36221955 44.19625909 -12.26676818 46.98676785 -9.1171875 50.078125 C-8.54292023 50.64956238 -7.96865295 51.22099976 -7.37698364 51.80975342 C-5.5476419 53.62792945 -3.71145807 55.43901492 -1.875 57.25 C-0.63105226 58.48391329 0.6124427 59.71828322 1.85546875 60.953125 C4.89842367 63.97406743 7.94753254 66.98867092 11 70 C15.00374431 68.16307611 17.71957934 65.50882084 20.75 62.375 C21.25660156 61.859375 21.76320313 61.34375 22.28515625 60.8125 C23.52803902 59.54616661 24.76465276 58.2736856 26 57 C20.95241573 50.85397771 15.40441039 45.25128263 9.77563477 39.64526367 C8.17019485 38.04525338 6.57025692 36.4398769 4.97070312 34.83398438 C3.95344609 33.81738694 2.93587953 32.8010991 1.91796875 31.78515625 C0.99781982 30.86613525 0.0776709 29.94711426 -0.87036133 29.00024414 C-3.14420949 26.51480268 -3.14420949 26.51480268 -5.30688477 28.19335938 Z M-37.12602711 59.93593979 C-37.79784671 60.59096757 -38.46966631 61.24599535 -39.16184407 61.92087245 C-39.90715578 62.65272612 -40.65246748 63.38457979 -41.42036438 64.13861084 C-42.59960103 65.29116548 -42.59960103 65.29116548 -43.80266064 66.46700406 C-46.46004286 69.06612666 -49.1135417 71.66917563 -51.7668457 74.27246094 C-53.1794112 75.65597407 -54.59197828 77.03948559 -56.00467888 78.42286077 C-73.85163653 95.9020238 -91.61934689 113.46167631 -109.36710835 131.04148483 C-111.6825995 133.33467115 -113.99831046 135.62763525 -116.31420898 137.92041016 C-116.88978289 138.49025412 -117.4653568 139.06009807 -118.05837234 139.64721003 C-127.34913878 148.84295045 -136.68285125 157.99384703 -146.03396807 167.12816545 C-155.64794254 176.52109875 -165.21507491 185.95989189 -174.74095601 195.4421618 C-180.6081626 201.27972302 -186.50762336 207.07999008 -192.45510771 212.83575901 C-196.54420305 216.79996548 -200.5863308 220.80849824 -204.59627739 224.85273114 C-206.90347565 227.17709297 -209.23038168 229.47119146 -211.60318184 231.72879219 C-226.20913792 245.66100411 -230.45417725 257.847295 -231 278 C-231.00877181 279.99998076 -231.01126667 282.00003173 -231 284 C-228.09833912 283.84388095 -225.21532647 283.63099219 -222.32187176 283.35719776 C-219.32385592 283.07912911 -216.35967367 282.96512493 -213.34998035 282.91144085 C-196.4498287 282.12053857 -188.20304573 273.68032375 -176.89916992 261.94262695 C-174.99837278 260.03674365 -173.09430148 258.134758 -171.18551636 256.23693848 C-167.1060153 252.16681142 -163.06040179 248.06541909 -159.0368557 243.93999672 C-153.21989535 237.97584906 -147.3530002 232.06288559 -141.47330049 226.16065767 C-131.93232123 216.58042164 -122.4321131 206.9608079 -112.95727539 197.31518555 C-103.76113201 187.95345642 -94.54600174 178.61109459 -85.30493164 169.29370117 C-84.73395869 168.7179992 -84.16298573 168.14229722 -83.57471057 167.54914973 C-80.70978017 164.66072622 -77.84447497 161.77267485 -74.97898328 158.88480818 C-51.26093062 134.98058711 -27.60896277 111.01196783 -4 87 C-4.94109643 85.89297526 -5.88350967 84.78706988 -6.82646179 83.68162537 C-7.35112376 83.06565207 -7.87578573 82.44967878 -8.41634655 81.81503963 C-10.70417289 79.19294104 -13.12220605 76.74797836 -15.58203125 74.28515625 C-16.33150276 73.53424965 -16.33150276 73.53424965 -17.09611511 72.76817322 C-18.13763881 71.72597637 -19.18039671 70.68501152 -20.22436523 69.64526367 C-21.82980515 68.04525338 -23.42974308 66.4398769 -25.02929688 64.83398438 C-26.04655391 63.81738694 -27.06412047 62.8010991 -28.08203125 61.78515625 C-29.00218018 60.86613525 -29.9223291 59.94711426 -30.87036133 59.00024414 C-34.09234725 55.97402258 -34.22912138 57.10171261 -37.12602711 59.93593979 Z " fill="#94A3BD" transform="translate(406,53)"/>
</svg>
