<svg width="94" height="27" viewBox="0 0 94 27" fill="none" xmlns="http://www.w3.org/2000/svg">
<path d="M0 26.5396V0.357732H18.4091V6.08501H7.10795V10.585H17.2841V16.3123H7.10795V26.5396H0ZM28.1314 0.357732V26.5396H21.0234V0.357732H28.1314ZM54.1534 0.357732V26.5396H48.2216L38.7614 12.7839H38.608V26.5396H31.5V0.357732H37.5341L46.8409 14.0623H47.0455V0.357732H54.1534ZM64.6236 0.357732V26.5396H57.5156V0.357732H64.6236ZM93.3558 13.4486C93.3558 16.3634 92.7891 18.8222 91.6555 20.8251C90.522 22.8194 88.9922 24.3322 87.0661 25.3634C85.1399 26.3861 82.9922 26.8975 80.6229 26.8975C78.2365 26.8975 76.0803 26.3819 74.1541 25.3506C72.2365 24.3109 70.7109 22.7938 69.5774 20.7995C68.4524 18.7967 67.8899 16.3464 67.8899 13.4486C67.8899 10.5339 68.4524 8.07932 69.5774 6.08501C70.7109 4.08216 72.2365 2.56938 74.1541 1.54665C76.0803 0.515402 78.2365 -0.000222921 80.6229 -0.000222921C82.9922 -0.000222921 85.1399 0.515402 87.0661 1.54665C88.9922 2.56938 90.522 4.08216 91.6555 6.08501C92.7891 8.07932 93.3558 10.5339 93.3558 13.4486ZM86.0433 13.4486C86.0433 11.8805 85.8345 10.5594 85.4169 9.48557C85.0078 8.40319 84.3984 7.585 83.5888 7.03103C82.7876 6.46853 81.799 6.18728 80.6229 6.18728C79.4467 6.18728 78.4538 6.46853 77.6442 7.03103C76.843 7.585 76.2337 8.40319 75.8161 9.48557C75.407 10.5594 75.2024 11.8805 75.2024 13.4486C75.2024 15.0168 75.407 16.3421 75.8161 17.4245C76.2337 18.4984 76.843 19.3165 77.6442 19.879C78.4538 20.433 79.4467 20.71 80.6229 20.71C81.799 20.71 82.7876 20.433 83.5888 19.879C84.3984 19.3165 85.0078 18.4984 85.4169 17.4245C85.8345 16.3421 86.0433 15.0168 86.0433 13.4486Z" fill="white"/>
</svg>
