<svg width="206" height="24" viewBox="0 0 206 24" fill="none" xmlns="http://www.w3.org/2000/svg">
<path d="M6.27891 23.5611L0 0.414141H4.11878L8.94309 18.1922L14.1135 0.412598L17.9529 0.414141L23.1413 18.2867L27.9873 0.418513L32.106 0.412598L25.8244 23.557L21.0503 23.5521L16.0347 6.26628L11.0145 23.5566L6.27891 23.5611Z" fill="white"/>
<path d="M34.9465 0.426758H38.8671V23.5467H34.9465V0.426758Z" fill="white"/>
<path d="M47.2494 19.9201H56.7942V23.5467H43.4098V0.426758H47.2494V19.9201Z" fill="white"/>
<path d="M68.8541 0.453414C72.0717 0.453414 74.7486 1.57344 76.8577 3.78676C78.9938 6.00007 80.0754 8.74679 80.0754 12.0001C80.0754 15.2268 78.9938 17.9734 76.8577 20.2134C74.7486 22.4268 72.0717 23.5467 68.8541 23.5467H59.6336V0.426758H68.8541V0.453414ZM68.8541 19.9467C71.0712 19.9467 72.8829 19.2001 74.2349 17.7068C75.6409 16.2134 76.3439 14.2934 76.3439 12.0267C76.3439 9.70678 75.6409 7.8401 74.2349 6.34679C72.8559 4.85339 71.0442 4.10673 68.8541 4.10673H63.5003V19.9467H68.8541Z" fill="white"/>
<path d="M100.761 16.942C100.761 18.8363 100.085 20.4104 98.706 21.6644C97.3268 22.9184 95.7043 23.5587 93.7037 23.5587H83.6719V0.426758H92.9734C94.8934 0.426758 96.5151 1.06713 97.8403 2.26773C99.1928 3.49499 99.8417 5.01582 99.8417 6.83004C99.8417 8.85779 99.03 10.4053 97.4623 11.5526C99.5168 12.6198 100.761 14.5407 100.761 16.942ZM87.5383 4.00199V10.0851H93C94.704 10.0851 96.0017 8.75107 96.0017 7.04356C96.0017 5.33596 94.704 4.00199 93 4.00199H87.5383ZM93.7303 19.9836C95.5148 19.9836 96.9214 18.5695 96.9214 16.7552C96.9214 14.9409 95.5148 13.5269 93.7303 13.5269H87.5383V20.0102H93.7303V19.9836Z" fill="white"/>
<path d="M108.25 19.9302H118.634V23.5587H104.411V0.426758H118.472V4.0553H108.25V10.0584H117.633V13.6603H108.25V19.9302Z" fill="white"/>
<path d="M135.453 23.5587L130.477 15.1277H125.934V23.5587H122.095V0.426758H131.478C133.587 0.426758 135.372 1.1471 136.805 2.61453C138.264 4.02864 139.022 5.78956 139.022 7.87061C139.022 10.8055 137.156 13.5002 134.371 14.5674L139.698 23.5587H135.453ZM125.934 4.0019V11.7392H131.451C133.506 11.7392 135.128 10.0317 135.128 7.87061C135.128 5.73616 133.479 4.0019 131.451 4.0019H125.934Z" fill="white"/>
<path d="M155.975 23.558L151.027 15.1226H146.484V23.558H142.645V0.414062H152.027C154.136 0.414062 155.921 1.13483 157.354 2.60303C158.814 4.01783 159.571 5.7796 159.571 7.86178C159.571 10.7982 157.705 13.4943 154.921 14.5621L160.247 23.558H155.975ZM146.484 3.99109V11.7325H152C154.055 11.7325 155.677 10.024 155.677 7.86178C155.677 5.72629 154.028 3.99109 152 3.99109H146.484Z" fill="white"/>
<path d="M163.06 0.416992H166.9V23.5584H163.06V0.416992Z" fill="white"/>
<path d="M175.281 19.9302H185.665V23.5586H171.441V0.426758H185.502V4.0553H175.281V10.0584H184.664V13.6603H175.281V19.9302Z" fill="white"/>
<path d="M188.341 18.2933L191.667 16.3733C192.613 18.9867 194.533 20.2666 197.48 20.2666C200.401 20.2666 201.834 19.04 201.834 17.2267C201.834 16.2667 201.428 15.5733 200.671 15.0933C199.914 14.5867 198.508 14.0266 196.507 13.44C194.263 12.7733 193.154 12.3466 191.586 11.3333C190.072 10.2667 189.314 8.74663 189.314 6.66669C189.314 4.61331 190.045 3.01337 191.532 1.81337C192.992 0.586629 194.777 0 196.859 0C200.617 0 203.51 1.92 205.025 5.09331L201.78 6.93334C200.806 4.8 199.157 3.70663 196.859 3.70663C194.614 3.70663 193.181 4.82666 193.181 6.58663C193.181 8.29337 194.317 9.09334 197.913 10.1866C198.805 10.48 199.454 10.6934 199.86 10.8533C200.293 10.9867 200.86 11.2267 201.59 11.52C202.348 11.8133 202.943 12.16 203.294 12.4533C204.538 13.4133 205.862 14.9866 205.7 17.2C205.7 19.28 204.943 20.96 203.402 22.1866C201.888 23.4134 199.887 24 197.4 24C192.857 23.9733 189.558 21.84 188.341 18.2933Z" fill="white"/>
</svg>
